<mxfile host="Electron" modified="2023-11-02T15:23:26.884Z" agent="Mozilla/5.0 (Macintosh; Intel Mac OS X 10_15_7) AppleWebKit/537.36 (KHTML, like Gecko) draw.io/22.0.2 Chrome/114.0.5735.289 Electron/25.8.4 Safari/537.36" etag="zIqVXH811dm9N4J5xkub" version="22.0.2" type="device" pages="4">
  <diagram name="вход в систему" id="2j_CdonJuM4z0J5dzwoN">
    <mxGraphModel dx="1026" dy="743" grid="1" gridSize="10" guides="1" tooltips="1" connect="1" arrows="1" fold="1" page="1" pageScale="1" pageWidth="827" pageHeight="1169" math="0" shadow="0">
      <root>
        <mxCell id="0" />
        <mxCell id="1" parent="0" />
        <mxCell id="nevixn_JsC1F3isKoeuA-1" value="" style="ellipse;html=1;shape=endState;fillColor=#000000;strokeColor=#ff0000;" parent="1" vertex="1">
          <mxGeometry x="180" y="340" width="30" height="30" as="geometry" />
        </mxCell>
        <mxCell id="nevixn_JsC1F3isKoeuA-2" value="" style="ellipse;html=1;shape=startState;fillColor=#000000;strokeColor=#000000;" parent="1" vertex="1">
          <mxGeometry x="390" y="40" width="30" height="30" as="geometry" />
        </mxCell>
        <mxCell id="nevixn_JsC1F3isKoeuA-3" value="" style="edgeStyle=orthogonalEdgeStyle;html=1;verticalAlign=bottom;endArrow=none;endSize=8;strokeColor=#1f1f1f;rounded=0;endFill=0;" parent="1" edge="1">
          <mxGeometry relative="1" as="geometry">
            <mxPoint x="405" y="130" as="targetPoint" />
            <mxPoint x="405" y="60" as="sourcePoint" />
          </mxGeometry>
        </mxCell>
        <mxCell id="j0uS0QcZaFlK4t2D1R-I-4" style="edgeStyle=orthogonalEdgeStyle;rounded=0;orthogonalLoop=1;jettySize=auto;html=1;exitX=0.5;exitY=1;exitDx=0;exitDy=0;entryX=0.5;entryY=0;entryDx=0;entryDy=0;" parent="1" source="j0uS0QcZaFlK4t2D1R-I-2" target="j0uS0QcZaFlK4t2D1R-I-3" edge="1">
          <mxGeometry relative="1" as="geometry" />
        </mxCell>
        <mxCell id="j0uS0QcZaFlK4t2D1R-I-2" value="Войти в систему" style="html=1;align=center;verticalAlign=top;rounded=1;absoluteArcSize=1;arcSize=10;dashed=0;whiteSpace=wrap;" parent="1" vertex="1">
          <mxGeometry x="335" y="130" width="140" height="40" as="geometry" />
        </mxCell>
        <mxCell id="j0uS0QcZaFlK4t2D1R-I-6" style="edgeStyle=orthogonalEdgeStyle;rounded=0;orthogonalLoop=1;jettySize=auto;html=1;exitX=0;exitY=0.5;exitDx=0;exitDy=0;entryX=0.5;entryY=0;entryDx=0;entryDy=0;" parent="1" source="j0uS0QcZaFlK4t2D1R-I-3" target="j0uS0QcZaFlK4t2D1R-I-5" edge="1">
          <mxGeometry relative="1" as="geometry" />
        </mxCell>
        <mxCell id="j0uS0QcZaFlK4t2D1R-I-10" style="edgeStyle=orthogonalEdgeStyle;rounded=0;orthogonalLoop=1;jettySize=auto;html=1;exitX=1;exitY=0.5;exitDx=0;exitDy=0;entryX=0.5;entryY=0;entryDx=0;entryDy=0;" parent="1" source="j0uS0QcZaFlK4t2D1R-I-3" target="j0uS0QcZaFlK4t2D1R-I-9" edge="1">
          <mxGeometry relative="1" as="geometry" />
        </mxCell>
        <mxCell id="j0uS0QcZaFlK4t2D1R-I-3" value="" style="rhombus;" parent="1" vertex="1">
          <mxGeometry x="390" y="210" width="30" height="30" as="geometry" />
        </mxCell>
        <mxCell id="j0uS0QcZaFlK4t2D1R-I-8" style="edgeStyle=orthogonalEdgeStyle;rounded=0;orthogonalLoop=1;jettySize=auto;html=1;exitX=0.5;exitY=1;exitDx=0;exitDy=0;entryX=0.5;entryY=0;entryDx=0;entryDy=0;endArrow=none;endFill=0;" parent="1" source="j0uS0QcZaFlK4t2D1R-I-5" target="nevixn_JsC1F3isKoeuA-1" edge="1">
          <mxGeometry relative="1" as="geometry" />
        </mxCell>
        <mxCell id="j0uS0QcZaFlK4t2D1R-I-5" value="вход в главное меню" style="html=1;align=center;verticalAlign=top;rounded=1;absoluteArcSize=1;arcSize=10;dashed=0;whiteSpace=wrap;" parent="1" vertex="1">
          <mxGeometry x="125" y="250" width="140" height="40" as="geometry" />
        </mxCell>
        <mxCell id="j0uS0QcZaFlK4t2D1R-I-7" value="[пользователь уже есть в системе]" style="text;html=1;align=center;verticalAlign=middle;resizable=0;points=[];autosize=1;strokeColor=none;fillColor=none;" parent="1" vertex="1">
          <mxGeometry x="185" y="200" width="220" height="30" as="geometry" />
        </mxCell>
        <mxCell id="j0uS0QcZaFlK4t2D1R-I-13" style="edgeStyle=orthogonalEdgeStyle;rounded=0;orthogonalLoop=1;jettySize=auto;html=1;exitX=0.5;exitY=1;exitDx=0;exitDy=0;entryX=0.5;entryY=0;entryDx=0;entryDy=0;" parent="1" source="j0uS0QcZaFlK4t2D1R-I-9" target="j0uS0QcZaFlK4t2D1R-I-12" edge="1">
          <mxGeometry relative="1" as="geometry" />
        </mxCell>
        <mxCell id="j0uS0QcZaFlK4t2D1R-I-9" value="сохранить пользователя в бд" style="html=1;align=center;verticalAlign=top;rounded=1;absoluteArcSize=1;arcSize=10;dashed=0;whiteSpace=wrap;" parent="1" vertex="1">
          <mxGeometry x="510" y="250" width="140" height="40" as="geometry" />
        </mxCell>
        <mxCell id="j0uS0QcZaFlK4t2D1R-I-11" value="[пользователя нет в системе]" style="text;html=1;align=center;verticalAlign=middle;resizable=0;points=[];autosize=1;strokeColor=none;fillColor=none;" parent="1" vertex="1">
          <mxGeometry x="409" y="200" width="190" height="30" as="geometry" />
        </mxCell>
        <mxCell id="j0uS0QcZaFlK4t2D1R-I-15" style="edgeStyle=orthogonalEdgeStyle;rounded=0;orthogonalLoop=1;jettySize=auto;html=1;exitX=0.5;exitY=1;exitDx=0;exitDy=0;entryX=0.5;entryY=0;entryDx=0;entryDy=0;endArrow=none;endFill=0;" parent="1" source="j0uS0QcZaFlK4t2D1R-I-12" target="j0uS0QcZaFlK4t2D1R-I-14" edge="1">
          <mxGeometry relative="1" as="geometry" />
        </mxCell>
        <mxCell id="j0uS0QcZaFlK4t2D1R-I-12" value="вход в главное меню" style="html=1;align=center;verticalAlign=top;rounded=1;absoluteArcSize=1;arcSize=10;dashed=0;whiteSpace=wrap;" parent="1" vertex="1">
          <mxGeometry x="510" y="310" width="140" height="40" as="geometry" />
        </mxCell>
        <mxCell id="j0uS0QcZaFlK4t2D1R-I-14" value="" style="ellipse;html=1;shape=endState;fillColor=#000000;strokeColor=#ff0000;" parent="1" vertex="1">
          <mxGeometry x="565" y="380" width="30" height="30" as="geometry" />
        </mxCell>
      </root>
    </mxGraphModel>
  </diagram>
  <diagram id="Mfnyp7L4g4aa8of97y5v" name="создание задачи">
    <mxGraphModel dx="1026" dy="743" grid="1" gridSize="10" guides="1" tooltips="1" connect="1" arrows="1" fold="1" page="1" pageScale="1" pageWidth="827" pageHeight="1169" math="0" shadow="0">
      <root>
        <mxCell id="0" />
        <mxCell id="1" parent="0" />
        <mxCell id="KQrv_qnnSGX5CpNM2_MF-1" value="" style="ellipse;html=1;shape=startState;fillColor=#000000;strokeColor=#000000;" parent="1" vertex="1">
          <mxGeometry x="390" y="40" width="30" height="30" as="geometry" />
        </mxCell>
        <mxCell id="KQrv_qnnSGX5CpNM2_MF-2" value="" style="edgeStyle=orthogonalEdgeStyle;html=1;verticalAlign=bottom;endArrow=none;endSize=8;strokeColor=#1f1f1f;rounded=0;endFill=0;" parent="1" edge="1">
          <mxGeometry relative="1" as="geometry">
            <mxPoint x="405" y="130" as="targetPoint" />
            <mxPoint x="405" y="60" as="sourcePoint" />
          </mxGeometry>
        </mxCell>
        <mxCell id="KQrv_qnnSGX5CpNM2_MF-5" style="edgeStyle=orthogonalEdgeStyle;rounded=0;orthogonalLoop=1;jettySize=auto;html=1;exitX=0.5;exitY=1;exitDx=0;exitDy=0;entryX=0.5;entryY=0;entryDx=0;entryDy=0;" parent="1" source="KQrv_qnnSGX5CpNM2_MF-3" target="KQrv_qnnSGX5CpNM2_MF-4" edge="1">
          <mxGeometry relative="1" as="geometry" />
        </mxCell>
        <mxCell id="KQrv_qnnSGX5CpNM2_MF-3" value="ввод ссылки" style="html=1;align=center;verticalAlign=top;rounded=1;absoluteArcSize=1;arcSize=10;dashed=0;whiteSpace=wrap;" parent="1" vertex="1">
          <mxGeometry x="450" y="240" width="140" height="40" as="geometry" />
        </mxCell>
        <mxCell id="KQrv_qnnSGX5CpNM2_MF-6" style="edgeStyle=orthogonalEdgeStyle;rounded=0;orthogonalLoop=1;jettySize=auto;html=1;exitX=1;exitY=0.5;exitDx=0;exitDy=0;entryX=1;entryY=0.5;entryDx=0;entryDy=0;" parent="1" source="KQrv_qnnSGX5CpNM2_MF-4" target="KQrv_qnnSGX5CpNM2_MF-3" edge="1">
          <mxGeometry relative="1" as="geometry">
            <mxPoint x="645" y="320" as="targetPoint" />
            <Array as="points">
              <mxPoint x="665" y="345" />
              <mxPoint x="665" y="260" />
            </Array>
          </mxGeometry>
        </mxCell>
        <mxCell id="KQrv_qnnSGX5CpNM2_MF-10" style="edgeStyle=orthogonalEdgeStyle;rounded=0;orthogonalLoop=1;jettySize=auto;html=1;exitX=0.5;exitY=1;exitDx=0;exitDy=0;entryX=0.5;entryY=0;entryDx=0;entryDy=0;" parent="1" source="KQrv_qnnSGX5CpNM2_MF-4" target="KQrv_qnnSGX5CpNM2_MF-9" edge="1">
          <mxGeometry relative="1" as="geometry" />
        </mxCell>
        <mxCell id="KQrv_qnnSGX5CpNM2_MF-4" value="" style="rhombus;" parent="1" vertex="1">
          <mxGeometry x="505" y="330" width="30" height="30" as="geometry" />
        </mxCell>
        <mxCell id="KQrv_qnnSGX5CpNM2_MF-7" value="[ссылка не корректна]" style="text;html=1;align=center;verticalAlign=middle;resizable=0;points=[];autosize=1;strokeColor=none;fillColor=none;" parent="1" vertex="1">
          <mxGeometry x="525" y="320" width="150" height="30" as="geometry" />
        </mxCell>
        <mxCell id="VPUdt6Vy2NOhWZtJAbJb-1" style="edgeStyle=orthogonalEdgeStyle;rounded=0;orthogonalLoop=1;jettySize=auto;html=1;exitX=0.5;exitY=1;exitDx=0;exitDy=0;entryX=0.5;entryY=0;entryDx=0;entryDy=0;" parent="1" source="KQrv_qnnSGX5CpNM2_MF-9" target="KQrv_qnnSGX5CpNM2_MF-12" edge="1">
          <mxGeometry relative="1" as="geometry" />
        </mxCell>
        <mxCell id="KQrv_qnnSGX5CpNM2_MF-9" value="ввод название ссылки" style="html=1;align=center;verticalAlign=top;rounded=1;absoluteArcSize=1;arcSize=10;dashed=0;whiteSpace=wrap;" parent="1" vertex="1">
          <mxGeometry x="450" y="430" width="140" height="40" as="geometry" />
        </mxCell>
        <mxCell id="KQrv_qnnSGX5CpNM2_MF-11" value="[ссылка корректна]" style="text;html=1;align=center;verticalAlign=middle;resizable=0;points=[];autosize=1;strokeColor=none;fillColor=none;" parent="1" vertex="1">
          <mxGeometry x="515" y="380" width="130" height="30" as="geometry" />
        </mxCell>
        <mxCell id="VPUdt6Vy2NOhWZtJAbJb-3" style="edgeStyle=orthogonalEdgeStyle;rounded=0;orthogonalLoop=1;jettySize=auto;html=1;exitX=1;exitY=0.5;exitDx=0;exitDy=0;entryX=1;entryY=0.5;entryDx=0;entryDy=0;" parent="1" source="KQrv_qnnSGX5CpNM2_MF-12" target="KQrv_qnnSGX5CpNM2_MF-9" edge="1">
          <mxGeometry relative="1" as="geometry">
            <Array as="points">
              <mxPoint x="695" y="525" />
              <mxPoint x="695" y="450" />
            </Array>
          </mxGeometry>
        </mxCell>
        <mxCell id="VPUdt6Vy2NOhWZtJAbJb-5" style="edgeStyle=orthogonalEdgeStyle;rounded=0;orthogonalLoop=1;jettySize=auto;html=1;exitX=0.5;exitY=1;exitDx=0;exitDy=0;" parent="1" source="KQrv_qnnSGX5CpNM2_MF-12" edge="1">
          <mxGeometry relative="1" as="geometry">
            <mxPoint x="520" y="590" as="targetPoint" />
          </mxGeometry>
        </mxCell>
        <mxCell id="KQrv_qnnSGX5CpNM2_MF-12" value="" style="rhombus;" parent="1" vertex="1">
          <mxGeometry x="505" y="510" width="30" height="30" as="geometry" />
        </mxCell>
        <mxCell id="VPUdt6Vy2NOhWZtJAbJb-4" value="[у пользователя есть&lt;br&gt;&amp;nbsp;ссылка&amp;nbsp;с таким названием]" style="text;html=1;align=center;verticalAlign=middle;resizable=0;points=[];autosize=1;strokeColor=none;fillColor=none;" parent="1" vertex="1">
          <mxGeometry x="525" y="490" width="180" height="40" as="geometry" />
        </mxCell>
        <mxCell id="Xi95A8Mj205Of7zmqzou-2" style="edgeStyle=orthogonalEdgeStyle;rounded=0;orthogonalLoop=1;jettySize=auto;html=1;exitX=0.5;exitY=1;exitDx=0;exitDy=0;entryX=0.5;entryY=0;entryDx=0;entryDy=0;endArrow=none;endFill=0;" parent="1" source="VPUdt6Vy2NOhWZtJAbJb-6" target="Xi95A8Mj205Of7zmqzou-1" edge="1">
          <mxGeometry relative="1" as="geometry" />
        </mxCell>
        <mxCell id="VPUdt6Vy2NOhWZtJAbJb-6" value="возвращение в меню задачи&amp;nbsp;" style="html=1;align=center;verticalAlign=top;rounded=1;absoluteArcSize=1;arcSize=10;dashed=0;whiteSpace=wrap;" parent="1" vertex="1">
          <mxGeometry x="450" y="590" width="140" height="40" as="geometry" />
        </mxCell>
        <mxCell id="VPUdt6Vy2NOhWZtJAbJb-7" value="[у пользователя нет задач &lt;br&gt;с таким названием]" style="text;html=1;align=center;verticalAlign=middle;resizable=0;points=[];autosize=1;strokeColor=none;fillColor=none;" parent="1" vertex="1">
          <mxGeometry x="515" y="540" width="170" height="40" as="geometry" />
        </mxCell>
        <mxCell id="Xi95A8Mj205Of7zmqzou-1" value="" style="ellipse;html=1;shape=endState;fillColor=#000000;strokeColor=#ff0000;" parent="1" vertex="1">
          <mxGeometry x="505" y="660" width="30" height="30" as="geometry" />
        </mxCell>
        <mxCell id="3V8_uxPMC7_RokzYIF5Y-3" style="edgeStyle=orthogonalEdgeStyle;rounded=0;orthogonalLoop=1;jettySize=auto;html=1;exitX=0.5;exitY=1;exitDx=0;exitDy=0;entryX=0.5;entryY=0;entryDx=0;entryDy=0;" parent="1" source="3V8_uxPMC7_RokzYIF5Y-1" target="3V8_uxPMC7_RokzYIF5Y-2" edge="1">
          <mxGeometry relative="1" as="geometry" />
        </mxCell>
        <mxCell id="3V8_uxPMC7_RokzYIF5Y-1" value="запрос на создание задачи" style="html=1;align=center;verticalAlign=top;rounded=1;absoluteArcSize=1;arcSize=10;dashed=0;whiteSpace=wrap;" parent="1" vertex="1">
          <mxGeometry x="335" y="130" width="140" height="40" as="geometry" />
        </mxCell>
        <mxCell id="3V8_uxPMC7_RokzYIF5Y-4" style="edgeStyle=orthogonalEdgeStyle;rounded=0;orthogonalLoop=1;jettySize=auto;html=1;exitX=1;exitY=0.5;exitDx=0;exitDy=0;entryX=0.5;entryY=0;entryDx=0;entryDy=0;" parent="1" source="3V8_uxPMC7_RokzYIF5Y-2" target="KQrv_qnnSGX5CpNM2_MF-3" edge="1">
          <mxGeometry relative="1" as="geometry" />
        </mxCell>
        <mxCell id="3V8_uxPMC7_RokzYIF5Y-12" style="edgeStyle=orthogonalEdgeStyle;rounded=0;orthogonalLoop=1;jettySize=auto;html=1;exitX=0;exitY=0.5;exitDx=0;exitDy=0;entryX=0.5;entryY=0;entryDx=0;entryDy=0;" parent="1" source="3V8_uxPMC7_RokzYIF5Y-2" target="3V8_uxPMC7_RokzYIF5Y-10" edge="1">
          <mxGeometry relative="1" as="geometry" />
        </mxCell>
        <mxCell id="3V8_uxPMC7_RokzYIF5Y-2" value="" style="rhombus;" parent="1" vertex="1">
          <mxGeometry x="390" y="200" width="30" height="30" as="geometry" />
        </mxCell>
        <mxCell id="3V8_uxPMC7_RokzYIF5Y-5" value="[кол-во задач меньше 5]" style="text;html=1;align=center;verticalAlign=middle;resizable=0;points=[];autosize=1;strokeColor=none;fillColor=none;" parent="1" vertex="1">
          <mxGeometry x="410" y="190" width="160" height="30" as="geometry" />
        </mxCell>
        <mxCell id="3V8_uxPMC7_RokzYIF5Y-6" value="" style="ellipse;html=1;shape=endState;fillColor=#000000;strokeColor=#ff0000;" parent="1" vertex="1">
          <mxGeometry x="220" y="330" width="30" height="30" as="geometry" />
        </mxCell>
        <mxCell id="3V8_uxPMC7_RokzYIF5Y-9" value="[кол-во задач больше 5]" style="text;html=1;align=center;verticalAlign=middle;resizable=0;points=[];autosize=1;strokeColor=none;fillColor=none;" parent="1" vertex="1">
          <mxGeometry x="230" y="190" width="160" height="30" as="geometry" />
        </mxCell>
        <mxCell id="k_NbvoRojpzVvD-OQOPq-2" style="edgeStyle=orthogonalEdgeStyle;rounded=0;orthogonalLoop=1;jettySize=auto;html=1;exitX=0.5;exitY=1;exitDx=0;exitDy=0;endArrow=none;endFill=0;" parent="1" source="3V8_uxPMC7_RokzYIF5Y-10" target="3V8_uxPMC7_RokzYIF5Y-6" edge="1">
          <mxGeometry relative="1" as="geometry" />
        </mxCell>
        <mxCell id="3V8_uxPMC7_RokzYIF5Y-10" value="вывод сообщения и возвращение в меню задачи" style="html=1;align=center;verticalAlign=top;rounded=1;absoluteArcSize=1;arcSize=10;dashed=0;whiteSpace=wrap;" parent="1" vertex="1">
          <mxGeometry x="165" y="240" width="140" height="60" as="geometry" />
        </mxCell>
      </root>
    </mxGraphModel>
  </diagram>
  <diagram id="0gN4Q_RikYIfQmyPwO6L" name="переход в задачи">
    <mxGraphModel dx="1026" dy="743" grid="1" gridSize="10" guides="1" tooltips="1" connect="1" arrows="1" fold="1" page="1" pageScale="1" pageWidth="827" pageHeight="1169" math="0" shadow="0">
      <root>
        <mxCell id="0" />
        <mxCell id="1" parent="0" />
        <mxCell id="R4UTKNbM4-Mgy65fu3fA-3" style="edgeStyle=orthogonalEdgeStyle;rounded=0;orthogonalLoop=1;jettySize=auto;html=1;exitX=0.5;exitY=1;exitDx=0;exitDy=0;endArrow=none;endFill=0;" edge="1" parent="1" source="R4UTKNbM4-Mgy65fu3fA-1" target="R4UTKNbM4-Mgy65fu3fA-2">
          <mxGeometry relative="1" as="geometry" />
        </mxCell>
        <mxCell id="R4UTKNbM4-Mgy65fu3fA-1" value="" style="ellipse;html=1;shape=startState;fillColor=#000000;strokeColor=#000000;" vertex="1" parent="1">
          <mxGeometry x="390" y="40" width="30" height="30" as="geometry" />
        </mxCell>
        <mxCell id="R4UTKNbM4-Mgy65fu3fA-5" style="edgeStyle=orthogonalEdgeStyle;rounded=0;orthogonalLoop=1;jettySize=auto;html=1;exitX=0.5;exitY=1;exitDx=0;exitDy=0;entryX=0.5;entryY=0;entryDx=0;entryDy=0;" edge="1" parent="1" source="R4UTKNbM4-Mgy65fu3fA-2">
          <mxGeometry relative="1" as="geometry">
            <mxPoint x="405" y="170" as="targetPoint" />
          </mxGeometry>
        </mxCell>
        <mxCell id="R4UTKNbM4-Mgy65fu3fA-2" value="запрос на переход в меню задачи" style="html=1;align=center;verticalAlign=top;rounded=1;absoluteArcSize=1;arcSize=10;dashed=0;whiteSpace=wrap;" vertex="1" parent="1">
          <mxGeometry x="335" y="100" width="140" height="40" as="geometry" />
        </mxCell>
        <mxCell id="JpFqvVqqFttHkXH61H9Y-2" style="edgeStyle=orthogonalEdgeStyle;rounded=0;orthogonalLoop=1;jettySize=auto;html=1;exitX=0;exitY=0.5;exitDx=0;exitDy=0;" edge="1" parent="1" source="JpFqvVqqFttHkXH61H9Y-1">
          <mxGeometry relative="1" as="geometry">
            <mxPoint x="280" y="240" as="targetPoint" />
          </mxGeometry>
        </mxCell>
        <mxCell id="L7mvsAyiH7tvL1FH899_-4" style="edgeStyle=orthogonalEdgeStyle;rounded=0;orthogonalLoop=1;jettySize=auto;html=1;exitX=1;exitY=0.5;exitDx=0;exitDy=0;entryX=0.5;entryY=0;entryDx=0;entryDy=0;" edge="1" parent="1" source="JpFqvVqqFttHkXH61H9Y-1" target="L7mvsAyiH7tvL1FH899_-3">
          <mxGeometry relative="1" as="geometry">
            <Array as="points">
              <mxPoint x="550" y="185" />
              <mxPoint x="550" y="240" />
            </Array>
          </mxGeometry>
        </mxCell>
        <mxCell id="JpFqvVqqFttHkXH61H9Y-1" value="" style="rhombus;" vertex="1" parent="1">
          <mxGeometry x="390" y="170" width="30" height="30" as="geometry" />
        </mxCell>
        <mxCell id="L7mvsAyiH7tvL1FH899_-1" value="" style="ellipse;html=1;shape=endState;fillColor=#000000;strokeColor=#ff0000;" vertex="1" parent="1">
          <mxGeometry x="265" y="330" width="30" height="30" as="geometry" />
        </mxCell>
        <mxCell id="L7mvsAyiH7tvL1FH899_-5" style="edgeStyle=orthogonalEdgeStyle;rounded=0;orthogonalLoop=1;jettySize=auto;html=1;exitX=0.5;exitY=1;exitDx=0;exitDy=0;entryX=0.5;entryY=0;entryDx=0;entryDy=0;endArrow=none;endFill=0;" edge="1" parent="1" source="L7mvsAyiH7tvL1FH899_-2" target="L7mvsAyiH7tvL1FH899_-1">
          <mxGeometry relative="1" as="geometry" />
        </mxCell>
        <mxCell id="L7mvsAyiH7tvL1FH899_-2" value="переход в меню задачи" style="html=1;align=center;verticalAlign=top;rounded=1;absoluteArcSize=1;arcSize=10;dashed=0;whiteSpace=wrap;" vertex="1" parent="1">
          <mxGeometry x="210" y="240" width="140" height="40" as="geometry" />
        </mxCell>
        <mxCell id="L7mvsAyiH7tvL1FH899_-8" style="edgeStyle=orthogonalEdgeStyle;rounded=0;orthogonalLoop=1;jettySize=auto;html=1;exitX=0.5;exitY=1;exitDx=0;exitDy=0;entryX=0.5;entryY=0;entryDx=0;entryDy=0;endArrow=none;endFill=0;" edge="1" parent="1" source="L7mvsAyiH7tvL1FH899_-3" target="L7mvsAyiH7tvL1FH899_-7">
          <mxGeometry relative="1" as="geometry" />
        </mxCell>
        <mxCell id="L7mvsAyiH7tvL1FH899_-3" value="переход в главное меню" style="html=1;align=center;verticalAlign=top;rounded=1;absoluteArcSize=1;arcSize=10;dashed=0;whiteSpace=wrap;" vertex="1" parent="1">
          <mxGeometry x="480" y="240" width="140" height="40" as="geometry" />
        </mxCell>
        <mxCell id="L7mvsAyiH7tvL1FH899_-7" value="" style="ellipse;html=1;shape=endState;fillColor=#000000;strokeColor=#ff0000;" vertex="1" parent="1">
          <mxGeometry x="535" y="330" width="30" height="30" as="geometry" />
        </mxCell>
        <mxCell id="L7mvsAyiH7tvL1FH899_-9" value="[подписка активна ]" style="text;html=1;align=center;verticalAlign=middle;resizable=0;points=[];autosize=1;strokeColor=none;fillColor=none;" vertex="1" parent="1">
          <mxGeometry x="265" y="158" width="140" height="30" as="geometry" />
        </mxCell>
        <mxCell id="L7mvsAyiH7tvL1FH899_-10" value="[подписка не активна ]" style="text;html=1;align=center;verticalAlign=middle;resizable=0;points=[];autosize=1;strokeColor=none;fillColor=none;" vertex="1" parent="1">
          <mxGeometry x="415" y="158" width="150" height="30" as="geometry" />
        </mxCell>
      </root>
    </mxGraphModel>
  </diagram>
  <diagram id="orMIGv-aY-VL4XUwWOVT" name="меню задачи">
    <mxGraphModel dx="1026" dy="743" grid="1" gridSize="10" guides="1" tooltips="1" connect="1" arrows="1" fold="1" page="1" pageScale="1" pageWidth="827" pageHeight="1169" math="0" shadow="0">
      <root>
        <mxCell id="0" />
        <mxCell id="1" parent="0" />
        <mxCell id="cPJoYQluXTsTzlh3DWY1-1" style="edgeStyle=orthogonalEdgeStyle;rounded=0;orthogonalLoop=1;jettySize=auto;html=1;exitX=0.5;exitY=1;exitDx=0;exitDy=0;endArrow=none;endFill=0;" parent="1" source="cPJoYQluXTsTzlh3DWY1-2" target="cPJoYQluXTsTzlh3DWY1-3" edge="1">
          <mxGeometry relative="1" as="geometry" />
        </mxCell>
        <mxCell id="cPJoYQluXTsTzlh3DWY1-2" value="" style="ellipse;html=1;shape=startState;fillColor=#000000;strokeColor=#000000;" parent="1" vertex="1">
          <mxGeometry x="390" y="40" width="30" height="30" as="geometry" />
        </mxCell>
        <mxCell id="cPJoYQluXTsTzlh3DWY1-5" style="edgeStyle=orthogonalEdgeStyle;rounded=0;orthogonalLoop=1;jettySize=auto;html=1;exitX=0.5;exitY=1;exitDx=0;exitDy=0;endArrow=none;endFill=0;" parent="1" source="cPJoYQluXTsTzlh3DWY1-3" edge="1">
          <mxGeometry relative="1" as="geometry">
            <mxPoint x="405" y="180" as="targetPoint" />
          </mxGeometry>
        </mxCell>
        <mxCell id="cPJoYQluXTsTzlh3DWY1-3" value="меню задачи" style="html=1;align=center;verticalAlign=top;rounded=1;absoluteArcSize=1;arcSize=10;dashed=0;whiteSpace=wrap;" parent="1" vertex="1">
          <mxGeometry x="335" y="100" width="140" height="40" as="geometry" />
        </mxCell>
        <mxCell id="cPJoYQluXTsTzlh3DWY1-4" value="" style="endArrow=none;startArrow=none;endFill=0;startFill=0;endSize=8;html=1;verticalAlign=bottom;labelBackgroundColor=none;strokeWidth=3;rounded=0;" parent="1" edge="1">
          <mxGeometry width="160" relative="1" as="geometry">
            <mxPoint x="170" y="180" as="sourcePoint" />
            <mxPoint x="640" y="180" as="targetPoint" />
          </mxGeometry>
        </mxCell>
        <mxCell id="cPJoYQluXTsTzlh3DWY1-6" value="создать задачу" style="html=1;align=center;verticalAlign=top;rounded=1;absoluteArcSize=1;arcSize=10;dashed=0;whiteSpace=wrap;" parent="1" vertex="1">
          <mxGeometry x="170" y="210" width="140" height="40" as="geometry" />
        </mxCell>
        <mxCell id="0A0cqgSnlMW2wEodux_y-2" value="" style="endArrow=none;html=1;rounded=0;exitX=0.5;exitY=0;exitDx=0;exitDy=0;" parent="1" source="cPJoYQluXTsTzlh3DWY1-6" edge="1">
          <mxGeometry width="50" height="50" relative="1" as="geometry">
            <mxPoint x="190" y="230" as="sourcePoint" />
            <mxPoint x="240" y="180" as="targetPoint" />
          </mxGeometry>
        </mxCell>
        <mxCell id="0A0cqgSnlMW2wEodux_y-3" value="удалить задачу" style="html=1;align=center;verticalAlign=top;rounded=1;absoluteArcSize=1;arcSize=10;dashed=0;whiteSpace=wrap;" parent="1" vertex="1">
          <mxGeometry x="330" y="210" width="140" height="40" as="geometry" />
        </mxCell>
        <mxCell id="0A0cqgSnlMW2wEodux_y-4" value="информация о задачах" style="html=1;align=center;verticalAlign=top;rounded=1;absoluteArcSize=1;arcSize=10;dashed=0;whiteSpace=wrap;" parent="1" vertex="1">
          <mxGeometry x="490" y="210" width="140" height="40" as="geometry" />
        </mxCell>
        <mxCell id="agI3z-VVH0mITmRaEabx-1" value="" style="endArrow=none;html=1;rounded=0;exitX=0.5;exitY=0;exitDx=0;exitDy=0;" edge="1" parent="1" source="0A0cqgSnlMW2wEodux_y-3">
          <mxGeometry width="50" height="50" relative="1" as="geometry">
            <mxPoint x="350" y="230" as="sourcePoint" />
            <mxPoint x="400" y="180" as="targetPoint" />
          </mxGeometry>
        </mxCell>
        <mxCell id="agI3z-VVH0mITmRaEabx-2" value="" style="endArrow=none;html=1;rounded=0;exitX=0.5;exitY=0;exitDx=0;exitDy=0;" edge="1" parent="1">
          <mxGeometry width="50" height="50" relative="1" as="geometry">
            <mxPoint x="559.5" y="210" as="sourcePoint" />
            <mxPoint x="559.5" y="180" as="targetPoint" />
          </mxGeometry>
        </mxCell>
        <mxCell id="agI3z-VVH0mITmRaEabx-3" value="" style="endArrow=none;startArrow=none;endFill=0;startFill=0;endSize=8;html=1;verticalAlign=bottom;labelBackgroundColor=none;strokeWidth=3;rounded=0;" edge="1" parent="1">
          <mxGeometry width="160" relative="1" as="geometry">
            <mxPoint x="165" y="280" as="sourcePoint" />
            <mxPoint x="635" y="280" as="targetPoint" />
          </mxGeometry>
        </mxCell>
        <mxCell id="agI3z-VVH0mITmRaEabx-4" value="" style="endArrow=none;html=1;rounded=0;entryX=0.5;entryY=1;entryDx=0;entryDy=0;" edge="1" parent="1" target="cPJoYQluXTsTzlh3DWY1-6">
          <mxGeometry width="50" height="50" relative="1" as="geometry">
            <mxPoint x="240" y="280" as="sourcePoint" />
            <mxPoint x="250" y="190" as="targetPoint" />
          </mxGeometry>
        </mxCell>
        <mxCell id="agI3z-VVH0mITmRaEabx-5" value="" style="endArrow=none;html=1;rounded=0;entryX=0.5;entryY=1;entryDx=0;entryDy=0;" edge="1" parent="1" target="0A0cqgSnlMW2wEodux_y-3">
          <mxGeometry width="50" height="50" relative="1" as="geometry">
            <mxPoint x="400" y="280" as="sourcePoint" />
            <mxPoint x="250" y="260" as="targetPoint" />
          </mxGeometry>
        </mxCell>
        <mxCell id="agI3z-VVH0mITmRaEabx-6" value="" style="endArrow=none;html=1;rounded=0;entryX=0.5;entryY=1;entryDx=0;entryDy=0;" edge="1" parent="1" target="0A0cqgSnlMW2wEodux_y-4">
          <mxGeometry width="50" height="50" relative="1" as="geometry">
            <mxPoint x="560" y="280" as="sourcePoint" />
            <mxPoint x="410" y="260" as="targetPoint" />
          </mxGeometry>
        </mxCell>
        <mxCell id="shQuDGltp9gKoLfkBCBl-1" value="" style="ellipse;html=1;shape=endState;fillColor=#000000;strokeColor=#ff0000;" vertex="1" parent="1">
          <mxGeometry x="385" y="320" width="30" height="30" as="geometry" />
        </mxCell>
        <mxCell id="shQuDGltp9gKoLfkBCBl-2" style="edgeStyle=orthogonalEdgeStyle;rounded=0;orthogonalLoop=1;jettySize=auto;html=1;exitX=0.5;exitY=1;exitDx=0;exitDy=0;endArrow=none;endFill=0;entryX=0.5;entryY=0;entryDx=0;entryDy=0;" edge="1" parent="1" target="shQuDGltp9gKoLfkBCBl-1">
          <mxGeometry relative="1" as="geometry">
            <mxPoint x="399.5" y="320" as="targetPoint" />
            <mxPoint x="399.5" y="280" as="sourcePoint" />
          </mxGeometry>
        </mxCell>
      </root>
    </mxGraphModel>
  </diagram>
</mxfile>
